<?xml version="1.0" standalone="no"?>
<!DOCTYPE svg PUBLIC "-//W3C//DTD SVG 20010904//EN"
 "http://www.w3.org/TR/2001/REC-SVG-20010904/DTD/svg10.dtd">
<svg version="1.0" xmlns="http://www.w3.org/2000/svg"
 width="200.000000pt" height="200.000000pt" viewBox="0 0 200.000000 200.000000"
 preserveAspectRatio="xMidYMid meet">
<metadata>
Created by potrace 1.11, written by Peter Selinger 2001-2013
</metadata>
<g transform="translate(0.000000,200.000000) scale(0.100000,-0.100000)"
fill="#000000" stroke="none">
<path d="M1475 1554 c-137 -51 -468 -173 -735 -272 -334 -124 -486 -185 -488
-195 -2 -12 38 -37 147 -91 l149 -75 11 -53 c6 -29 24 -132 42 -228 30 -164
40 -200 59 -200 4 0 34 46 65 103 32 56 66 117 77 135 l20 32 185 -179 c102
-99 191 -177 197 -175 6 2 30 48 52 102 23 53 143 336 268 629 124 292 226
536 226 541 0 24 -41 13 -275 -74z m164 -81 c-57 -130 -429 -1002 -441 -1032
-9 -24 -16 -17 -179 145 l-170 169 33 29 c18 16 127 120 243 231 319 306 529
505 532 505 1 0 -7 -21 -18 -47z m-183 16 c-10 -6 -211 -125 -448 -265 -236
-140 -432 -254 -436 -254 -11 -1 -231 104 -231 110 -1 5 1107 418 1124 419 6
0 2 -4 -9 -10z m59 -37 c-22 -22 -99 -95 -170 -163 -567 -541 -545 -518 -609
-633 -33 -58 -62 -106 -66 -106 -11 0 -73 371 -64 380 5 4 160 97 344 205 184
109 394 233 465 276 72 43 132 78 135 79 3 0 -13 -17 -35 -38z"/>
</g>
</svg>
